<svg width="50" height="50" viewBox="0 0 50 50" fill="none" xmlns="http://www.w3.org/2000/svg">
<path d="M23.9446 26.3151C29.0866 25.8712 32.6476 28.9396 33.4917 33.9365C31.0698 33.5324 28.6222 33.3055 26.1677 33.2578C23.4643 33.1023 19.2258 33.4485 16.5596 33.9118C17.06 29.8401 19.8896 26.9301 23.9446 26.3151Z" fill="#CC9747"/>
<path d="M10.1104 36.0533C19.4766 33.1921 29.4784 33.0538 38.9198 35.8388C40.6693 36.3548 41.8814 36.9555 43.505 37.621L43.3707 37.7197C43.3094 37.6831 43.2465 37.6494 43.182 37.6187C42.4048 37.2493 40.382 36.6425 39.4851 36.3952C31.3218 34.1454 22.2942 33.8867 13.9722 35.359C13.0082 35.5295 11.1166 35.8693 10.2696 36.1832L10.1104 36.0533Z" fill="#CC9747"/>
<path d="M10.3835 19.5258C11.1112 20.3347 12.126 21.2891 12.9117 22.0682C14.6431 23.7712 16.3645 25.4843 18.0758 27.2074L17.5428 27.7645C15.2004 25.177 12.6876 22.1574 10.3164 19.6779L10.3835 19.5258Z" fill="#CC9747"/>
<path d="M5.39551 25.5905C5.81171 25.6132 14.8865 29.7276 15.8376 30.2036C15.8915 30.4357 15.8144 30.5304 15.7319 30.7802L15.6488 30.8721C15.4057 30.8851 6.37164 26.1013 5.39551 25.5905Z" fill="#CC9747"/>
<path d="M16.5439 14.6896C16.8876 15.0333 21.2498 25.0216 21.217 25.1352C21.1751 25.1569 21.1329 25.1779 21.0902 25.1979C20.8587 25.3056 20.7665 25.3724 20.5713 25.3027C20.1019 24.3086 19.5085 22.5884 19.1048 21.5178L16.5439 14.6896Z" fill="#CC9747"/>
<path d="M39.0173 19.9811L39.1827 20.0596C38.5095 20.7326 37.5676 21.8621 36.9146 22.5953L32.4062 27.6586L31.8604 27.1157L39.0173 19.9811Z" fill="#CC9747"/>
<path d="M32.9977 15.0319L33.0909 15.1641C32.8028 15.73 32.0923 17.7576 31.8345 18.44L29.2348 25.3299L28.5352 25.0041C29.9383 21.886 31.7429 18.1524 32.9977 15.0319Z" fill="#CC9747"/>
<path d="M24.9767 13.1729C25.0023 15.7877 25.2935 21.2782 25.4007 24.1668C25.4007 24.1671 25.3277 24.3096 25.3199 24.3258C25.0761 24.4105 25.007 24.3976 24.7461 24.3781C24.7189 24.3423 24.6855 24.2994 24.6475 24.2495C24.6451 21.3898 24.8758 16.5918 24.8432 13.9173L24.9767 13.1729Z" fill="#CC9747"/>
<path d="M6.31563 32.7926C8.25594 32.8275 10.1958 32.884 12.1349 32.9621C12.8686 32.9875 13.6094 33.0228 14.3448 33.0201C14.6558 33.019 15.0569 32.9822 15.1789 33.3133C15.0837 33.6461 14.8962 33.8186 14.5157 33.7915C11.5202 33.5785 8.41963 33.1021 5.42871 32.944C5.66679 32.774 6.01148 32.8026 6.31563 32.7926Z" fill="#CC9747"/>
<path d="M44.4048 32.9424C41.5674 33.2028 38.7301 33.4652 35.8943 33.7448C35.4649 33.7873 35.1582 33.8746 34.9043 33.4759C34.9167 33.2198 34.8787 33.2901 35.0169 33.0961C35.4114 32.9892 36.924 32.995 37.4411 32.9767C39.4872 32.8896 41.5348 32.8288 43.5832 32.7944C43.8643 32.802 44.1982 32.7708 44.4048 32.9424Z" fill="#CC9747"/>
<path d="M42.3207 26.4221L42.2469 26.7077C39.7186 28.1045 36.9528 29.4738 34.3748 30.8319L34.0518 30.133C36.7975 28.9069 39.596 27.6856 42.3207 26.4221Z" fill="#CC9747"/>
<path d="M15.291 20.7743C15.9034 21.5236 18.8853 25.6953 19.1816 26.4019C19.1398 26.3975 19.1097 26.3882 19.0705 26.3724C18.7369 26.2378 15.5567 21.3907 15.291 20.7743Z" fill="#DEBD8B"/>
<path d="M33.7445 21.55L33.7763 21.5868C33.7833 21.6297 33.7911 21.6803 33.7996 21.7385C32.9261 22.9335 31.5183 25.1073 30.772 26.2391C30.7068 26.1921 30.6975 26.1227 30.6719 26.0435C31.0368 25.3311 32.0572 24.0568 32.5401 23.3045C32.77 22.9462 33.5201 21.821 33.7445 21.55Z" fill="#DEBD8B"/>
<path d="M12.1377 25.9259C12.3209 25.8891 16.4999 28.8123 16.6806 29.1053C16.313 29.0859 12.6014 26.3455 12.1377 25.9259Z" fill="#DEBD8B"/>
<path d="M27.9771 18.8616C28.0089 19.2515 27.1524 24.3018 26.9537 24.6884C26.6772 24.0573 27.8668 19.9216 27.9771 18.8616Z" fill="#DEBD8B"/>
<path d="M39.5669 30.9L39.8122 30.8926C39.6794 31.0095 35.6137 32.0063 35.0243 32.1565C34.8411 32.1974 34.9187 32.202 34.7246 32.1129L34.7456 32.0178C35.0966 31.8682 35.5368 31.8288 35.922 31.7366C37.1341 31.4463 38.3493 31.1674 39.5669 30.9Z" fill="#DEBD8B"/>
<path d="M37.1856 26.2241L37.2066 26.3114L33.4941 29.0479L33.3955 28.9306C33.5143 28.6628 36.6925 26.5608 37.1856 26.2241Z" fill="#DEBD8B"/>
<path d="M21.9217 20.0587C22.2149 21.4513 22.6165 23.1961 22.7967 24.5835L22.7552 24.6199C22.2485 23.4101 22.1426 21.5709 21.8545 20.2218L21.9217 20.0587Z" fill="#CC9747"/>
<path d="M11.4145 31.2192C11.9168 31.3428 15.0797 32.0099 15.258 32.1845C14.7077 32.2396 11.9824 31.5149 11.3408 31.3098L11.4145 31.2192Z" fill="#CC9747"/>
<path d="M42.3199 26.4221C42.8036 26.2103 44.8295 25.2655 45.2193 25.1438C44.5694 25.5379 42.9659 26.4106 42.2461 26.7077L42.3199 26.4221Z" fill="#DEBD8B"/>
<path d="M5.42811 32.9441C4.62334 32.8836 3.79871 32.8319 3 32.7289L3.03898 32.6943C3.81245 32.6506 5.54404 32.6904 6.31503 32.7927C6.01087 32.8027 5.66618 32.7741 5.42811 32.9441Z" fill="#DEBD8B"/>
<path d="M43.583 32.7944C44.1623 32.7063 46.161 32.6541 46.7946 32.6703L46.8296 32.7257L47.0004 32.6924C46.7045 32.6576 44.938 32.9329 44.4045 32.9424C44.198 32.7708 43.8641 32.802 43.583 32.7944Z" fill="#DEBD8B"/>
<path d="M10.3158 19.6779C10.0337 19.4156 9.22375 18.645 9.13477 18.3112C9.44878 18.36 10.1459 19.2469 10.3829 19.5258L10.3158 19.6779Z" fill="#DEBD8B"/>
<path d="M39.0186 19.9812C39.1653 19.8079 40.4465 18.4843 40.5832 18.4493C40.3254 18.7781 39.4751 19.8156 39.1839 20.0597L39.0186 19.9812Z" fill="#DEBD8B"/>
<path d="M21.8542 20.2218C21.6654 19.4774 21.5506 18.7161 21.5117 17.9491C21.6567 18.4618 21.9059 19.552 21.9214 20.0587L21.8542 20.2218Z" fill="#DEBD8B"/>
<path d="M24.8428 13.9173C24.7939 13.3725 24.8125 12.5288 24.9018 11.9906C25.0214 12.2141 25.002 12.9026 24.9764 13.1729L24.8428 13.9173Z" fill="#DEBD8B"/>
<path d="M11.3408 31.3099C11.0354 31.2827 10.1647 31.092 9.90918 30.9364L10.0394 30.8954L10.0036 31.0233L10.0802 30.8972L10.0493 31.0456L10.1385 30.9025C10.3338 30.9225 11.1852 31.1593 11.4145 31.2193L11.3408 31.3099Z" fill="#DEBD8B"/>
<path d="M32.9971 15.0317C33.0848 14.8084 33.2914 14.2352 33.39 14.0485L33.5212 14.0389L33.5282 13.9931L33.435 13.9699L33.5274 13.9143C33.5002 14.2382 33.2393 14.8574 33.0902 15.164L32.9971 15.0317Z" fill="#DEBD8B"/>
<path d="M10.2699 36.1832C10.0187 36.2517 9.2469 36.5017 9.04998 36.4408L9.05254 36.4836L8.98242 36.4816C9.22818 36.3188 9.80676 36.1528 10.1106 36.0533L10.2699 36.1832Z" fill="#DEBD8B"/>
<path d="M43.5044 37.6211C43.7467 37.7187 44.0527 37.8239 44.2313 38.0094C43.9416 38.0108 43.6411 37.8421 43.3701 37.7197L43.5044 37.6211Z" fill="#DEBD8B"/>
</svg>
