<svg width="186" height="56" viewBox="0 0 186 56" fill="none" xmlns="http://www.w3.org/2000/svg">
<path d="M157.967 34.9175C158.217 34.8923 158.655 34.8506 158.893 34.8775C161.863 35.2147 159.96 38.1209 159.101 39.4409C156.647 43.2152 153.422 46.254 150.026 49.139C149.712 50.1681 149.186 51.8989 150.144 52.7916C150.306 52.9432 150.782 53.055 150.992 52.9773C153.507 52.0487 155.589 49.2633 157.076 47.1303C157.47 46.565 157.986 43.6206 159.345 44.7261C160.236 46.0511 155.681 51.0784 157.414 52.8246C157.929 53.2259 158.893 52.6376 159.287 52.3359C162.698 49.7241 164.846 45.3572 169.255 44.153C169.901 44.0211 170.571 44.116 171.057 44.5926C173.492 46.9824 166.264 50.8255 165.162 49.7352L165.242 49.6123C166.639 49.4519 170.79 47.0491 170.648 45.5446C170.509 45.2593 170.468 45.2306 170.177 45.0938C168.178 44.8505 164.002 49.4467 163.797 51.3643C163.687 52.3875 163.828 53.1564 164.981 53.2502C168.02 53.4977 171.056 50.7923 172.855 48.6115C173.598 47.4924 173.465 45.6534 174.475 44.7493C174.781 44.4754 175.512 44.5209 175.772 44.9551C175.806 45.3625 173.903 49.9846 173.614 50.8616C174.676 49.6026 179.967 43.2347 181.617 44.4259C182.332 45.9176 179.502 49.4197 179.495 51.4261C179.482 55.8702 184.541 49.5038 185.479 48.6057C185.623 48.4666 185.711 48.4503 185.889 48.4754C185.856 49.5608 182.83 52.3314 181.859 53.0119C181.264 53.4293 179.914 53.9172 179.193 53.7156C176.061 52.8408 179.073 48.356 179.692 46.6031C179.761 46.4108 179.691 46.3346 179.595 46.1966C177.781 46.0604 174.072 52.0571 172.836 53.2385C172.501 53.5583 171.488 53.8156 171.004 53.9553C171.524 52.6838 171.99 51.3095 172.454 50.0106C170.846 51.7003 169.939 52.5136 167.816 53.4913C166.228 53.9766 164 54.2891 162.692 52.8955C162.038 52.1996 162.085 51.4294 162.14 50.5341C161.365 51.3689 159.864 52.9128 158.851 53.3172C154.63 55.0008 155.44 51.6543 156.232 49.338C155.37 50.407 154.419 51.4013 153.39 52.3102C152.186 53.3692 150.164 54.6137 148.651 53.0515C148.043 52.4243 148.205 51.1272 148.284 50.3005C147.248 51.4159 143.584 55.4628 141.726 53.0171C141.058 52.1369 141.712 49.8774 141.997 48.8154C140.583 50.3836 138.615 52.9431 136.426 53.3733C134.805 53.6919 133.86 52.3756 133.638 50.9041C132.222 52.3987 128.725 55.6671 127.338 52.4116C127.459 50.9944 127.714 50.3981 128.19 49.0577C127.91 49.4408 127.178 50.6364 126.691 50.4414C126.812 49.6705 128.366 48.0855 128.844 47.2755C129.195 46.6791 129.53 46.1092 129.867 45.4788C129.348 45.5186 128.988 45.622 128.707 45.1265L128.784 44.8935C129.384 44.2727 129.585 44.3502 130.466 44.2616C131.133 43.0274 131.737 41.7248 132.481 40.5294C132.934 39.8008 134.053 39.1322 134.576 40.1641C134.582 40.3315 134.574 40.6299 134.474 40.764C133.569 41.9689 132.857 43.1834 132.112 44.4943C133.606 44.3243 134.7 44.1333 136.213 44.3207C134.9 44.993 133.132 45.1054 131.653 45.2768L131.555 45.4426C131.111 46.1936 127.57 52.3786 129.337 52.8345C131.544 53.404 134.747 48.243 136.388 47.0421C138.455 45.5294 141.704 43.0096 144.317 44.6405C144.627 44.8241 144.794 44.9197 144.892 45.2619L144.778 45.4369C144.415 45.5916 144.352 45.0753 143.651 44.9692C142.08 44.7309 140.379 45.6305 139.092 46.5095C137.4 47.7181 135.634 49.4854 135.045 51.5191C134.934 51.9039 135.184 52.9617 135.581 52.8573C138.696 52.0376 141.267 47.937 143.654 46.0428C144.176 46.1813 144.493 46.307 144.996 46.5122C144.819 46.808 144.645 47.106 144.476 47.4062C143.872 48.4801 142.105 52.0906 143.406 52.8632C144.568 53.5528 147.853 49.9937 148.48 49.1394C148.823 48.673 149.352 47.1785 149.585 46.6197C150.083 45.4226 150.626 44.2448 151.213 43.0889C152.568 40.4139 154.962 35.9025 157.967 34.9175Z" fill="#1B2A1F"/>
<path d="M158.865 35.6626C161.716 35.8021 154.148 44.4961 153.537 45.1492C152.734 46.0217 151.864 46.8298 150.935 47.5657C150.778 47.6876 150.743 47.6937 150.553 47.7466C150.57 47.6726 150.616 47.4964 150.644 47.4318C152.121 43.9263 155.309 37.3288 158.865 35.6626Z" fill="#E2D6BF"/>
<path d="M85.7194 34.9256C85.9727 34.8945 86.4674 34.8515 86.7085 34.8787C89.6718 35.2136 87.7889 38.1028 86.9077 39.4536C84.4561 43.2113 81.243 46.2683 77.8403 49.1327C77.6245 49.8586 77.0013 53.0015 78.13 53.0215C80.9988 52.8914 83.2799 48.9789 85.2347 47.1815C86.5889 45.9366 90.8357 42.412 92.2129 45.0371C93.4571 47.4098 87.4344 50.5247 86.0091 49.8532C86.068 49.6708 86.12 49.6603 86.3127 49.5957C88.2062 48.9611 89.9173 47.9067 91.2579 46.4188C91.9627 45.8189 91.3371 44.8317 90.5307 45.1004C88.6696 45.721 86.6654 47.7067 85.6088 49.264C84.2435 51.2762 83.8641 53.9679 87.1976 53.1846C90.3548 52.4427 93.0505 49.7438 94.7689 47.0889C95.2937 46.2816 95.4364 43.7382 97.0668 44.7606C97.2066 44.9849 97.2564 45.0698 97.2144 45.3446C97.1391 45.8319 96.8273 46.3373 96.6084 46.7774C95.9017 48.1977 94.7806 49.9899 94.6662 51.5812C94.6369 51.9892 94.7043 52.4044 94.9888 52.7171C95.1413 52.885 95.3143 52.9726 95.543 52.9743C96.8039 52.9838 99.8378 49.7912 100.49 48.7422C101.07 47.8078 101.416 46.5859 101.868 45.5718C103.28 42.4044 105.034 38.7936 107.532 36.3212C108.398 35.464 109.395 34.8464 110.648 34.8596C111.101 34.8644 111.573 34.9864 111.891 35.3274C112.185 35.6415 112.288 36.0752 112.274 36.4952C112.179 39.2719 106.13 45.3015 104.084 47.2178C103.358 47.8596 102.609 48.494 101.874 49.127C101.633 49.8894 101.295 50.9688 101.46 51.7591C102.358 56.0592 107.442 48.5052 108.361 48.4961L108.401 48.6485C108.094 49.6804 105.544 52.1034 104.61 52.8193C103.78 53.4526 102.858 53.873 101.799 53.7262C99.7664 53.4444 99.9502 51.6278 100.185 50.0665C99.4468 50.9667 97.6669 52.8053 96.6445 53.2425C92.2363 55.1274 93.073 51.6309 93.9361 49.2259C92.2227 51.4742 89.2245 54.0468 86.2733 53.9102C83.8578 53.7984 82.873 52.9181 82.9694 50.5766C81.7911 51.8093 77.9568 55.8316 76.2582 52.6405C75.4673 51.1544 76.8112 48.0219 77.4409 46.4797C75.9697 47.119 75.3802 47.1238 73.8159 47.121C73.7464 48.8433 73.1348 49.3459 72.2289 50.9155C70.8145 53.366 66.551 55.6104 65.4831 51.673C65.0969 50.2487 66.2073 47.9559 67.1299 46.7579C68.1111 45.4837 70.241 43.4307 72.109 44.3088C72.4597 44.4831 72.7652 45.1714 72.8054 45.5907C72.6866 45.9356 72.7738 45.8301 72.4628 46.02C72.1546 45.8678 72.3378 45.53 71.9485 45.1601C70.4655 44.4707 68.0591 48.0096 67.3805 49.2982C66.6947 50.6006 66.1994 53.96 68.8552 53.1724C70.4593 52.6966 72.2669 49.6916 72.5832 48.1551C72.6632 47.766 72.3022 46.9703 72.5263 46.4588C72.6638 46.3424 72.7985 46.2284 72.996 46.2515C74.6607 46.4472 75.9285 46.473 77.5812 46.1689C78.9379 42.8399 82.202 36.2299 85.7194 34.9256Z" fill="#1B2A1F"/>
<path d="M86.6369 35.6757C89.5321 35.6977 82.2457 44.1703 81.6941 44.7744C80.8273 45.7414 79.8878 46.6407 78.8838 47.4645C78.7311 47.5975 78.6723 47.618 78.4949 47.6977C78.4588 47.4901 78.4663 47.3926 78.5544 47.1963C80.1723 43.5907 82.9928 37.4917 86.6369 35.6757Z" fill="#E2D6BF"/>
<path d="M110.683 35.6689C111.043 35.6816 111.091 35.7314 111.304 35.972C112.032 38.0185 104.645 46.0763 102.822 47.5236C102.664 47.6547 102.643 47.6669 102.443 47.713C102.411 47.4385 103.234 45.7303 103.398 45.3858C104.867 42.3079 107.453 37.2202 110.683 35.6689Z" fill="#E2D6BF"/>
<path d="M90.337 18.031C96.8096 17.4723 101.292 21.3347 102.355 27.6246C99.3059 27.1159 96.2251 26.8303 93.1354 26.7703C89.7325 26.5746 84.3971 27.0103 81.041 27.5935C81.671 22.4683 85.2327 18.8052 90.337 18.031Z" fill="#CC9747"/>
<path d="M25.7383 34.9086C26.0242 34.9434 25.9303 34.8907 26.1177 35.1022C26.1387 35.308 26.0484 35.5776 25.9432 35.7536C23.8528 39.2519 22.5929 42.9291 21.4025 46.8117C22.4955 46.8685 23.3905 46.9416 24.457 46.5765C24.906 46.4229 25.2875 45.787 25.6029 45.7994L25.6971 45.9863C25.4391 47.5429 22.4294 47.4207 21.2749 47.3772C19.1887 55.9208 22.6184 53.9179 26.935 49.0368C27.9042 47.9408 28.4471 46.1498 29.6797 45.3139C29.9292 45.1446 31.1964 45.1287 31.3587 45.6246C31.1456 46.0239 30.2546 46.9771 29.8725 47.3654C29.0229 48.2287 26.9209 51.7094 28.3162 52.6972C31.0708 53.5849 35.2481 45.9333 36.3443 44.0838C36.8532 44.1501 37.4754 44.2189 37.8752 44.5512C38.0686 45.2027 33.7112 51.0768 35.2572 52.714C36.6943 54.236 40.7119 48.4448 41.3685 48.5077C41.7539 49.1384 38.0665 52.6807 37.3133 53.0682C32.8215 55.3788 33.1992 51.5925 34.0513 48.6007C33.6294 49.2821 33.1978 49.9574 32.7565 50.6264C31.347 52.7345 29.7508 54.3913 27.2611 52.6903C26.5858 51.8697 26.7038 51.0109 26.8396 50.0256C25.6509 51.4055 21.769 55.6996 19.6885 52.9224C18.7517 51.6718 19.4856 48.7404 19.8436 47.2312C18.7974 47.1791 17.1998 46.9544 16.1789 46.803C13.4415 50.128 10.1526 54.2991 6.02106 55.6961C3.47838 56.5559 -0.621562 55.6465 0.0794399 52.2569C0.114295 52.0884 0.269462 52.0248 0.40464 51.9885C0.684732 52.3239 0.491132 53.6962 1.2719 54.1665C6.22251 57.1484 12.5887 49.4446 15.0299 46.6515C11.9685 46.3437 5.32112 44.8566 4.19131 48.8502C4.06435 49.299 4.42121 50.2156 3.89975 50.3269C3.29462 49.9969 3.33284 47.9784 3.47398 47.3732C4.50048 42.972 12.7712 45.3071 15.7118 45.9212C17.5509 43.7636 19.3509 41.573 21.1109 39.3504C22.0824 38.1308 23.2685 36.508 24.3547 35.3847C24.5318 35.2016 25.4296 34.9884 25.7383 34.9086Z" fill="#1B2A1F"/>
<path d="M22.726 38.3069C22.7241 38.5157 22.6343 38.7107 22.5571 38.9037C21.5322 41.4663 20.6905 44.0195 19.9585 46.6799L17.2786 46.1987C17.1569 46.1884 17.0299 46.1292 16.9141 46.0841C16.9146 45.9602 22.0917 39.1596 22.726 38.3069Z" fill="#E2D6BF"/>
<path d="M62.5072 35.1395C64.7887 35.1909 67.2414 35.6446 65.3111 38.7157C65.0594 39.1161 64.5185 39.5226 64.04 39.5914C64.092 38.8913 67.9523 35.72 61.3412 36.2997C59.1179 36.4946 56.1195 37.6325 54.5522 39.1862C53.9776 39.7559 54.4021 40.5696 55.0606 40.8598C57.4762 42.0495 60.0688 42.6404 62.3706 44.0987C64.062 45.1703 65.2234 46.8259 63.7989 48.6783C61.3824 51.7333 57.3614 53.3947 53.6694 54.2328C49.7904 55.1133 44.0575 53.9079 47.6309 48.8651C47.7637 48.7117 47.8989 48.5604 48.0366 48.4113C49.486 46.8496 52.2351 45.5121 54.3703 45.4161C54.6345 45.4042 55.1122 45.3909 55.3096 45.5767C55.2008 45.814 53.7663 45.9962 53.4017 46.0672C48.8797 47.0223 44.7267 53.2435 52.4539 53.0554C53.3364 53.034 54.3307 52.8558 55.1793 52.6772C57.6257 52.1623 60.8241 51.0995 62.5581 49.2189C65.8555 45.6425 58.7989 44.3322 56.6608 43.4078C55.5114 42.9109 54.5551 42.6881 53.5891 41.8617C52.4005 40.8791 52.6137 39.5347 53.5475 38.4606C55.7055 36.2962 59.5779 35.3241 62.5072 35.1395Z" fill="#1B2A1F"/>
<path d="M126.736 34.9136C126.96 34.9025 127.184 34.9226 127.409 34.9373C127.73 35.1519 127.649 35.1223 127.782 35.5366C128.826 36.0371 131.226 35.9393 131.71 37.2771L131.626 37.4313C131.277 37.4851 129.525 37.0767 128.953 37.0267C128.345 36.9735 127.858 36.953 127.228 36.9458C125.834 41.3655 124.245 46.518 121.795 50.4684C121.244 51.3544 120.626 51.9068 119.98 52.6831C120.92 52.6912 125.252 52.5077 125.745 52.6469L125.807 52.8363C125.646 53.141 125.319 53.3546 124.999 53.3617C123.395 53.3973 114.813 54.0917 113.669 53.5839C113.504 53.5097 113.379 53.3676 113.327 53.1944C113.08 52.3878 114.253 51.3323 115.342 51.9493C115.728 52.1822 116.185 52.4124 116.62 52.526C117.481 52.7595 118.4 52.6356 119.168 52.1824C122.384 50.2853 124.754 40.6373 125.712 36.9799C123.719 37.1593 119.947 37.7218 119.192 39.9741C118.568 41.8343 120.727 42.0659 121.105 42.7396L120.99 42.8014C120.398 42.757 119.818 42.3376 119.388 41.9519C118.748 41.3775 118.45 40.6891 118.406 39.8319C118.174 35.3395 125.484 36.0873 126.177 35.2916C126.341 35.1028 126.514 35.0199 126.736 34.9136Z" fill="#1B2A1F"/>
<path d="M72.9229 30.2893C84.7128 26.6876 97.3027 26.5137 109.187 30.0192C111.389 30.6688 112.915 31.4249 114.959 32.2627L114.79 32.3868C114.713 32.3408 114.633 32.2984 114.552 32.2597C113.574 31.7948 111.028 31.0309 109.899 30.7196C99.6231 27.8876 88.2595 27.5621 77.784 29.4153C76.5705 29.6299 74.1895 30.0576 73.1233 30.4528L72.9229 30.2893Z" fill="#CC9747"/>
<path d="M73.2671 9.48499C74.1831 10.5032 75.4604 11.7047 76.4495 12.6853C78.6288 14.829 80.7957 16.9854 82.9499 19.1544L82.279 19.8556C79.3304 16.5986 76.1674 12.7976 73.1826 9.67654L73.2671 9.48499Z" fill="#CC9747"/>
<path d="M66.9883 17.1189C67.5122 17.1475 78.9352 22.3266 80.1324 22.9257C80.2003 23.218 80.1032 23.3372 79.9994 23.6516L79.8947 23.7672C79.5887 23.7837 68.217 17.7619 66.9883 17.1189Z" fill="#CC9747"/>
<path d="M81.0215 3.39734C81.4541 3.82995 86.945 16.4029 86.9037 16.5459C86.8511 16.5732 86.7979 16.5996 86.7441 16.6248C86.4528 16.7604 86.3366 16.8445 86.091 16.7568C85.5002 15.5054 84.7532 13.3401 84.2449 11.9925L81.0215 3.39734Z" fill="#CC9747"/>
<path d="M109.311 10.0581L109.519 10.157C108.671 11.0041 107.486 12.4259 106.664 13.3488L100.989 19.7222L100.302 19.039L109.311 10.0581Z" fill="#CC9747"/>
<path d="M101.733 3.82812L101.85 3.99463C101.487 4.70692 100.593 7.25922 100.268 8.11813L96.9959 16.7909L96.1152 16.3808C97.8814 12.4558 100.153 7.75612 101.733 3.82812Z" fill="#CC9747"/>
<path d="M91.6361 1.48816C91.6684 4.77958 92.0349 11.6909 92.1698 15.327C92.1698 15.3273 92.0779 15.5067 92.0682 15.5271C91.7612 15.6337 91.6743 15.6175 91.3458 15.593C91.3116 15.5479 91.2696 15.4938 91.2217 15.431C91.2188 11.8314 91.5091 5.79183 91.468 2.42525L91.6361 1.48816Z" fill="#CC9747"/>
<path d="M68.1467 26.1848C70.5891 26.2288 73.0309 26.2999 75.4717 26.3981C76.3953 26.4302 77.3279 26.4746 78.2535 26.4712C78.645 26.4697 79.1499 26.4234 79.3035 26.8403C79.1836 27.2591 78.9477 27.4762 78.4686 27.4422C74.698 27.174 70.7951 26.5745 67.0303 26.3754C67.33 26.1614 67.7638 26.1974 68.1467 26.1848Z" fill="#CC9747"/>
<path d="M116.092 26.3733C112.52 26.7011 108.949 27.0314 105.379 27.3833C104.839 27.4367 104.452 27.5466 104.133 27.0448C104.148 26.7225 104.101 26.8109 104.275 26.5668C104.771 26.4322 106.675 26.4394 107.326 26.4165C109.902 26.3068 112.479 26.2303 115.058 26.187C115.411 26.1966 115.832 26.1572 116.092 26.3733Z" fill="#CC9747"/>
<path d="M113.468 18.1659L113.375 18.5254C110.193 20.2836 106.711 22.0073 103.466 23.7168L103.06 22.837C106.516 21.2936 110.038 19.7563 113.468 18.1659Z" fill="#CC9747"/>
<path d="M161.664 40.1433L161.8 40.1967C161.922 40.8202 161.423 42.1546 160.851 42.5268C160.417 42.8097 160.176 42.7132 159.702 42.6454C159.448 42.4717 159.43 42.4127 159.393 42.1389C159.619 41.5599 161.087 40.5715 161.664 40.1433Z" fill="#1B2A1F"/>
<path d="M99.4492 40.0646C99.7131 40.5484 99.027 42.2718 98.4601 42.5341C97.8951 42.7951 97.8482 42.7199 97.2666 42.6248C97.0457 42.3792 97.0477 42.3523 97.0731 42.0524C97.4699 41.3993 98.7973 40.5304 99.4492 40.0646Z" fill="#1B2A1F"/>
<path d="M79.4443 11.0565C80.2151 11.9997 83.9687 17.2509 84.3416 18.1403C84.2891 18.1348 84.2511 18.1231 84.2019 18.1032C83.7819 17.9337 79.7787 11.8324 79.4443 11.0565Z" fill="#DEBD8B"/>
<path d="M102.673 12.0331L102.713 12.0793C102.722 12.1333 102.732 12.197 102.743 12.2703C101.643 13.7745 99.8711 16.5109 98.9318 17.9355C98.8497 17.8763 98.8379 17.789 98.8057 17.6893C99.2651 16.7925 100.549 15.1885 101.157 14.2415C101.447 13.7906 102.391 12.3741 102.673 12.0331Z" fill="#DEBD8B"/>
<path d="M75.4756 17.5412C75.7062 17.4949 80.9666 21.1745 81.194 21.5434C80.7313 21.5189 76.0593 18.0695 75.4756 17.5412Z" fill="#DEBD8B"/>
<path d="M95.4138 8.64893C95.4539 9.13977 94.3758 15.4968 94.1255 15.9835C93.7776 15.1891 95.275 9.98324 95.4138 8.64893Z" fill="#DEBD8B"/>
<path d="M110.002 23.8025L110.311 23.7931C110.144 23.9403 105.026 25.195 104.285 25.384C104.054 25.4355 104.152 25.4414 103.907 25.3292L103.934 25.2095C104.375 25.0211 104.93 24.9716 105.414 24.8555C106.94 24.49 108.47 24.139 110.002 23.8025Z" fill="#DEBD8B"/>
<path d="M107.005 17.9166L107.032 18.0265L102.359 21.4711L102.234 21.3234C102.384 20.9863 106.385 18.3404 107.005 17.9166Z" fill="#DEBD8B"/>
<path d="M87.7906 10.1559C88.1597 11.9088 88.6652 14.1051 88.8921 15.8515L88.8399 15.8974C88.202 14.3745 88.0687 12.0594 87.7061 10.3612L87.7906 10.1559Z" fill="#CC9747"/>
<path d="M74.5644 24.2043C75.1967 24.3599 79.178 25.1996 79.4025 25.4194C78.7098 25.4888 75.2793 24.5765 74.4717 24.3183L74.5644 24.2043Z" fill="#CC9747"/>
<path d="M113.468 18.1659C114.077 17.8992 116.627 16.7099 117.118 16.5568C116.299 17.0528 114.281 18.1514 113.375 18.5253L113.468 18.1659Z" fill="#DEBD8B"/>
<path d="M67.03 26.3755C66.017 26.2994 64.979 26.2342 63.9736 26.1046L64.0227 26.061C64.9963 26.006 67.176 26.0561 68.1465 26.1849C67.7636 26.1975 67.3297 26.1614 67.03 26.3755Z" fill="#DEBD8B"/>
<path d="M115.058 26.1871C115.787 26.0761 118.303 26.0105 119.1 26.0308L119.144 26.1005L119.359 26.0586C118.987 26.0148 116.763 26.3613 116.092 26.3733C115.832 26.1573 115.411 26.1966 115.058 26.1871Z" fill="#DEBD8B"/>
<path d="M73.182 9.67651C72.8269 9.34635 71.8073 8.37628 71.6953 7.95605C72.0906 8.01759 72.9681 9.13399 73.2664 9.48495L73.182 9.67651Z" fill="#DEBD8B"/>
<path d="M109.312 10.0582C109.496 9.8401 111.109 8.17396 111.281 8.13C110.957 8.54378 109.886 9.84977 109.52 10.1571L109.312 10.0582Z" fill="#DEBD8B"/>
<path d="M87.7056 10.3611C87.4678 9.42409 87.3234 8.46584 87.2744 7.50037C87.4569 8.14574 87.7706 9.51806 87.7901 10.1558L87.7056 10.3611Z" fill="#DEBD8B"/>
<path d="M91.4678 2.42529C91.4063 1.73953 91.4297 0.677504 91.5421 0C91.6926 0.28135 91.6682 1.14803 91.6359 1.48819L91.4678 2.42529Z" fill="#DEBD8B"/>
<path d="M74.472 24.3183C74.0876 24.2842 72.9916 24.0442 72.6699 23.8483L72.8338 23.7966L72.7888 23.9576L72.8852 23.7989L72.8463 23.9857L72.9586 23.8056C73.2045 23.8308 74.2761 24.1288 74.5648 24.2043L74.472 24.3183Z" fill="#DEBD8B"/>
<path d="M101.732 3.82808C101.843 3.547 102.103 2.82548 102.227 2.59042L102.392 2.57834L102.401 2.52075L102.284 2.49147L102.4 2.42151C102.366 2.82917 102.037 3.60862 101.85 3.99459L101.732 3.82808Z" fill="#DEBD8B"/>
<path d="M73.1235 30.4528C72.8073 30.539 71.8358 30.8537 71.588 30.777L71.5912 30.8308L71.5029 30.8284C71.8123 30.6235 72.5406 30.4145 72.923 30.2893L73.1235 30.4528Z" fill="#DEBD8B"/>
<path d="M114.959 32.2627C115.264 32.3856 115.649 32.518 115.874 32.7515C115.509 32.7532 115.131 32.5409 114.79 32.3869L114.959 32.2627Z" fill="#DEBD8B"/>
</svg>
