<svg width="186" height="56" viewBox="0 0 186 56" fill="none" xmlns="http://www.w3.org/2000/svg">
<path d="M157.967 34.9174C158.217 34.8922 158.655 34.8505 158.893 34.8773C161.863 35.2145 159.96 38.1208 159.101 39.4408C156.647 43.2151 153.422 46.2539 150.026 49.1389C149.712 50.168 149.186 51.8988 150.144 52.7915C150.306 52.9431 150.782 53.0548 150.992 52.9772C153.507 52.0485 155.589 49.2632 157.076 47.1302C157.47 46.5648 157.986 43.6205 159.345 44.726C160.236 46.0509 155.681 51.0783 157.414 52.8245C157.929 53.2258 158.893 52.6375 159.287 52.3358C162.698 49.724 164.846 45.3571 169.255 44.1529C169.901 44.0209 170.571 44.1159 171.057 44.5925C173.492 46.9822 166.264 50.8254 165.162 49.7351L165.242 49.6122C166.639 49.4518 170.79 47.0489 170.648 45.5445C170.509 45.2591 170.468 45.2305 170.177 45.0937C168.178 44.8503 164.002 49.4466 163.797 51.3642C163.687 52.3874 163.828 53.1562 164.981 53.2501C168.02 53.4975 171.056 50.7922 172.855 48.6113C173.598 47.4923 173.465 45.6533 174.475 44.7492C174.781 44.4753 175.512 44.5208 175.772 44.955C175.806 45.3624 173.903 49.9844 173.614 50.8615C174.676 49.6025 179.967 43.2346 181.617 44.4257C182.332 45.9175 179.502 49.4196 179.495 51.426C179.482 55.8701 184.541 49.5037 185.479 48.6056C185.623 48.4665 185.711 48.4502 185.889 48.4753C185.856 49.5607 182.83 52.3313 181.859 53.0118C181.264 53.4292 179.914 53.9171 179.193 53.7155C176.061 52.8406 179.073 48.3559 179.692 46.6029C179.761 46.4107 179.691 46.3345 179.595 46.1965C177.781 46.0603 174.072 52.0569 172.836 53.2384C172.501 53.5582 171.488 53.8155 171.004 53.9552C171.524 52.6837 171.99 51.3094 172.454 50.0105C170.846 51.7002 169.939 52.5135 167.816 53.4912C166.228 53.9765 164 54.2889 162.692 52.8954C162.038 52.1995 162.085 51.4292 162.14 50.534C161.365 51.3688 159.864 52.9127 158.851 53.3171C154.63 55.0006 155.44 51.6542 156.232 49.3379C155.37 50.4069 154.419 51.4012 153.39 52.31C152.186 53.3691 150.164 54.6135 148.651 53.0514C148.043 52.4242 148.205 51.1271 148.284 50.3003C147.248 51.4158 143.584 55.4627 141.726 53.0169C141.058 52.1367 141.712 49.8773 141.997 48.8153C140.583 50.3835 138.615 52.943 136.426 53.3732C134.805 53.6918 133.86 52.3755 133.638 50.904C132.222 52.3986 128.725 55.667 127.338 52.4115C127.459 50.9943 127.714 50.398 128.19 49.0576C127.91 49.4407 127.178 50.6363 126.691 50.4413C126.812 49.6704 128.366 48.0853 128.844 47.2754C129.195 46.6789 129.53 46.1091 129.867 45.4787C129.348 45.5185 128.988 45.6218 128.707 45.1264L128.784 44.8934C129.384 44.2726 129.585 44.3501 130.466 44.2614C131.133 43.0272 131.737 41.7247 132.481 40.5292C132.934 39.8006 134.053 39.1321 134.576 40.164C134.582 40.3313 134.574 40.6298 134.474 40.7639C133.569 41.9688 132.857 43.1832 132.112 44.4942C133.606 44.3241 134.7 44.1332 136.213 44.3205C134.9 44.9929 133.132 45.1053 131.653 45.2767L131.555 45.4425C131.111 46.1935 127.57 52.3785 129.337 52.8344C131.544 53.4039 134.747 48.2429 136.388 47.042C138.455 45.5293 141.704 43.0095 144.317 44.6403C144.627 44.824 144.794 44.9196 144.892 45.2618L144.778 45.4368C144.415 45.5914 144.352 45.0752 143.651 44.969C142.08 44.7308 140.379 45.6303 139.092 46.5094C137.4 47.718 135.634 49.4853 135.045 51.519C134.934 51.9038 135.184 52.9616 135.581 52.8571C138.696 52.0375 141.267 47.9369 143.654 46.0426C144.176 46.1811 144.493 46.3069 144.996 46.5121C144.819 46.8079 144.645 47.1059 144.476 47.4061C143.872 48.48 142.105 52.0904 143.406 52.8631C144.568 53.5527 147.853 49.9935 148.48 49.1393C148.823 48.6729 149.352 47.1784 149.585 46.6195C150.083 45.4225 150.626 44.2446 151.213 43.0888C152.568 40.4138 154.962 35.9024 157.967 34.9174Z" fill="#F1F0E5"/>
<path d="M158.865 35.6626C161.716 35.8021 154.148 44.4961 153.537 45.1492C152.734 46.0217 151.864 46.8298 150.935 47.5657C150.778 47.6876 150.743 47.6937 150.553 47.7466C150.57 47.6726 150.616 47.4964 150.644 47.4318C152.121 43.9263 155.309 37.3288 158.865 35.6626Z" fill="#1B2A1F"/>
<path d="M85.7194 34.9256C85.9727 34.8945 86.4674 34.8515 86.7085 34.8787C89.6718 35.2136 87.7889 38.1028 86.9077 39.4536C84.4561 43.2113 81.243 46.2683 77.8403 49.1327C77.6245 49.8586 77.0013 53.0015 78.13 53.0215C80.9988 52.8914 83.2799 48.9789 85.2347 47.1815C86.5889 45.9366 90.8357 42.412 92.2129 45.0371C93.4571 47.4098 87.4344 50.5247 86.0091 49.8532C86.068 49.6708 86.12 49.6603 86.3127 49.5957C88.2062 48.9611 89.9173 47.9067 91.2579 46.4188C91.9627 45.8189 91.3371 44.8317 90.5307 45.1004C88.6696 45.721 86.6654 47.7067 85.6088 49.264C84.2435 51.2762 83.8641 53.9679 87.1976 53.1846C90.3548 52.4427 93.0505 49.7438 94.7689 47.0889C95.2937 46.2816 95.4364 43.7382 97.0668 44.7606C97.2066 44.9849 97.2564 45.0698 97.2144 45.3446C97.1391 45.8319 96.8273 46.3373 96.6084 46.7774C95.9017 48.1977 94.7806 49.9899 94.6662 51.5812C94.6369 51.9892 94.7043 52.4044 94.9888 52.7171C95.1413 52.885 95.3143 52.9726 95.543 52.9743C96.8039 52.9838 99.8378 49.7912 100.49 48.7422C101.07 47.8078 101.416 46.5859 101.868 45.5718C103.28 42.4044 105.034 38.7936 107.532 36.3212C108.398 35.464 109.395 34.8464 110.648 34.8596C111.101 34.8644 111.573 34.9864 111.891 35.3274C112.185 35.6415 112.288 36.0752 112.274 36.4952C112.179 39.2719 106.13 45.3015 104.084 47.2178C103.358 47.8596 102.609 48.494 101.874 49.127C101.633 49.8894 101.295 50.9688 101.46 51.7591C102.358 56.0592 107.442 48.5052 108.361 48.4961L108.401 48.6485C108.094 49.6804 105.544 52.1034 104.61 52.8193C103.78 53.4526 102.858 53.873 101.799 53.7262C99.7664 53.4444 99.9502 51.6278 100.185 50.0665C99.4468 50.9667 97.6669 52.8053 96.6445 53.2425C92.2363 55.1274 93.073 51.6309 93.9361 49.2259C92.2227 51.4742 89.2245 54.0468 86.2733 53.9102C83.8578 53.7984 82.873 52.9181 82.9694 50.5766C81.7911 51.8093 77.9568 55.8316 76.2582 52.6405C75.4673 51.1544 76.8112 48.0219 77.4409 46.4797C75.9697 47.119 75.3802 47.1238 73.8159 47.121C73.7464 48.8433 73.1348 49.3459 72.2289 50.9155C70.8145 53.366 66.551 55.6104 65.4831 51.673C65.0969 50.2487 66.2073 47.9559 67.1299 46.7579C68.1111 45.4837 70.241 43.4307 72.109 44.3088C72.4597 44.4831 72.7652 45.1714 72.8054 45.5907C72.6866 45.9356 72.7738 45.8301 72.4628 46.02C72.1546 45.8678 72.3378 45.53 71.9485 45.1601C70.4655 44.4707 68.0591 48.0096 67.3805 49.2982C66.6947 50.6006 66.1994 53.96 68.8552 53.1724C70.4593 52.6966 72.2669 49.6916 72.5832 48.1551C72.6632 47.766 72.3022 46.9703 72.5263 46.4588C72.6638 46.3424 72.7985 46.2284 72.996 46.2515C74.6607 46.4472 75.9285 46.473 77.5812 46.1689C78.9379 42.8399 82.202 36.2299 85.7194 34.9256Z" fill="#F1F0E5"/>
<path d="M86.6369 35.6758C89.5321 35.6979 82.2457 44.1704 81.6941 44.7745C80.8273 45.7415 79.8878 46.6408 78.8838 47.4646C78.7311 47.5976 78.6723 47.6181 78.4949 47.6978C78.4588 47.4903 78.4663 47.3927 78.5544 47.1964C80.1723 43.5908 82.9928 37.4919 86.6369 35.6758Z" fill="#1B2A1F"/>
<path d="M110.683 35.6689C111.043 35.6816 111.091 35.7314 111.304 35.972C112.032 38.0185 104.645 46.0763 102.822 47.5236C102.664 47.6547 102.643 47.6669 102.443 47.713C102.411 47.4385 103.234 45.7303 103.398 45.3858C104.867 42.3079 107.453 37.2202 110.683 35.6689Z" fill="#1B2A1F"/>
<path d="M90.337 18.031C96.8096 17.4723 101.292 21.3347 102.355 27.6246C99.3059 27.1159 96.2251 26.8303 93.1354 26.7703C89.7325 26.5746 84.3971 27.0103 81.041 27.5935C81.671 22.4683 85.2327 18.8052 90.337 18.031Z" fill="#CC9747"/>
<path d="M25.7383 34.9087C26.0242 34.9436 25.9303 34.8908 26.1177 35.1023C26.1387 35.3081 26.0484 35.5777 25.9432 35.7537C23.8528 39.2521 22.5929 42.9293 21.4025 46.8119C22.4955 46.8686 23.3905 46.9417 24.457 46.5767C24.906 46.423 25.2875 45.7871 25.6029 45.7995L25.6971 45.9865C25.4391 47.543 22.4294 47.4208 21.2749 47.3773C19.1887 55.9209 22.6184 53.918 26.935 49.0369C27.9042 47.941 28.4471 46.1499 29.6797 45.314C29.9292 45.1448 31.1964 45.1288 31.3587 45.6248C31.1456 46.024 30.2546 46.9772 29.8725 47.3655C29.0229 48.2288 26.9209 51.7095 28.3162 52.6973C31.0708 53.5851 35.2481 45.9334 36.3443 44.0839C36.8532 44.1503 37.4754 44.219 37.8752 44.5513C38.0686 45.2028 33.7112 51.0769 35.2572 52.7141C36.6943 54.2361 40.7119 48.4449 41.3685 48.5078C41.7539 49.1385 38.0665 52.6808 37.3133 53.0683C32.8215 55.379 33.1992 51.5927 34.0513 48.6008C33.6294 49.2822 33.1978 49.9575 32.7565 50.6265C31.347 52.7346 29.7508 54.3914 27.2611 52.6904C26.5858 51.8699 26.7038 51.0111 26.8396 50.0258C25.6509 51.4056 21.769 55.6997 19.6885 52.9225C18.7517 51.6719 19.4856 48.7405 19.8436 47.2313C18.7974 47.1792 17.1998 46.9545 16.1789 46.8031C13.4415 50.1281 10.1526 54.2992 6.02106 55.6962C3.47838 56.556 -0.621562 55.6466 0.0794399 52.257C0.114295 52.0885 0.269462 52.0249 0.40464 51.9887C0.684732 52.324 0.491132 53.6963 1.2719 54.1666C6.22251 57.1485 12.5887 49.4448 15.0299 46.6516C11.9685 46.3438 5.32112 44.8567 4.19131 48.8504C4.06435 49.2991 4.42121 50.2158 3.89975 50.327C3.29462 49.997 3.33284 47.9786 3.47398 47.3733C4.50048 42.9721 12.7712 45.3072 15.7118 45.9213C17.5509 43.7637 19.3509 41.5732 21.1109 39.3505C22.0824 38.1309 23.2685 36.5081 24.3547 35.3848C24.5318 35.2017 25.4296 34.9885 25.7383 34.9087Z" fill="#F1F0E5"/>
<path d="M22.726 38.3066C22.7241 38.5155 22.6343 38.7105 22.5571 38.9035C21.5322 41.466 20.6905 44.0193 19.9585 46.6796L17.2786 46.1985C17.1569 46.1881 17.0299 46.1289 16.9141 46.0839C16.9146 45.9599 22.0917 39.1594 22.726 38.3066Z" fill="#1B2A1F"/>
<path d="M62.5072 35.1396C64.7887 35.191 67.2414 35.6448 65.3111 38.7158C65.0594 39.1162 64.5185 39.5227 64.04 39.5915C64.092 38.8915 67.9523 35.7202 61.3412 36.2998C59.1179 36.4948 56.1195 37.6327 54.5522 39.1864C53.9776 39.756 54.4021 40.5697 55.0606 40.8599C57.4762 42.0496 60.0688 42.6406 62.3706 44.0988C64.062 45.1704 65.2234 46.8261 63.7989 48.6784C61.3824 51.7335 57.3614 53.3948 53.6694 54.2329C49.7904 55.1134 44.0575 53.908 47.6309 48.8653C47.7637 48.7118 47.8989 48.5605 48.0366 48.4114C49.486 46.8497 52.2351 45.5123 54.3703 45.4162C54.6345 45.4043 55.1122 45.391 55.3096 45.5768C55.2008 45.8141 53.7663 45.9964 53.4017 46.0673C48.8797 47.0224 44.7267 53.2436 52.4539 53.0556C53.3364 53.0341 54.3307 52.8559 55.1793 52.6773C57.6257 52.1625 60.8241 51.0996 62.5581 49.2191C65.8555 45.6427 58.7989 44.3323 56.6608 43.4079C55.5114 42.911 54.5551 42.6882 53.5891 41.8618C52.4005 40.8793 52.6137 39.5348 53.5475 38.4607C55.7055 36.2963 59.5779 35.3243 62.5072 35.1396Z" fill="#F1F0E5"/>
<path d="M126.736 34.9134C126.96 34.9022 127.184 34.9224 127.409 34.937C127.73 35.1516 127.649 35.122 127.782 35.5364C128.826 36.0368 131.226 35.939 131.71 37.2769L131.626 37.4311C131.277 37.4848 129.525 37.0764 128.953 37.0264C128.345 36.9733 127.858 36.9528 127.228 36.9455C125.834 41.3653 124.245 46.5178 121.795 50.4682C121.244 51.3541 120.626 51.9065 119.98 52.6829C120.92 52.691 125.252 52.5074 125.745 52.6466L125.807 52.836C125.646 53.1408 125.319 53.3543 124.999 53.3615C123.395 53.397 114.813 54.0914 113.669 53.5837C113.504 53.5094 113.379 53.3673 113.327 53.1941C113.08 52.3876 114.253 51.332 115.342 51.9491C115.728 52.182 116.185 52.4122 116.62 52.5258C117.481 52.7593 118.4 52.6354 119.168 52.1822C122.384 50.285 124.754 40.6371 125.712 36.9796C123.719 37.1591 119.947 37.7215 119.192 39.9738C118.568 41.8341 120.727 42.0657 121.105 42.7394L120.99 42.8012C120.398 42.7568 119.818 42.3373 119.388 41.9517C118.748 41.3772 118.45 40.6889 118.406 39.8316C118.174 35.3393 125.484 36.087 126.177 35.2914C126.341 35.1026 126.514 35.0197 126.736 34.9134Z" fill="#F1F0E5"/>
<path d="M72.9229 30.2892C84.7128 26.6875 97.3027 26.5135 109.187 30.0191C111.389 30.6687 112.915 31.4248 114.959 32.2625L114.79 32.3867C114.713 32.3407 114.633 32.2983 114.552 32.2596C113.574 31.7946 111.028 31.0308 109.899 30.7195C99.6231 27.8875 88.2595 27.5619 77.784 29.4151C76.5705 29.6297 74.1895 30.0575 73.1233 30.4527L72.9229 30.2892Z" fill="#CC9747"/>
<path d="M73.2671 9.48486C74.1831 10.5031 75.4604 11.7046 76.4495 12.6852C78.6288 14.8289 80.7957 16.9853 82.9499 19.1543L82.279 19.8555C79.3304 16.5985 76.1674 12.7975 73.1826 9.67642L73.2671 9.48486Z" fill="#CC9747"/>
<path d="M66.9883 17.1191C67.5122 17.1478 78.9352 22.3269 80.1324 22.926C80.2003 23.2182 80.1032 23.3374 79.9994 23.6518L79.8947 23.7675C79.5887 23.7839 68.217 17.7622 66.9883 17.1191Z" fill="#CC9747"/>
<path d="M81.0215 3.39746C81.4541 3.83007 86.945 16.403 86.9037 16.546C86.8511 16.5734 86.7979 16.5997 86.7441 16.6249C86.4528 16.7605 86.3366 16.8446 86.091 16.7569C85.5002 15.5055 84.7532 13.3402 84.2449 11.9926L81.0215 3.39746Z" fill="#CC9747"/>
<path d="M109.311 10.0581L109.519 10.157C108.671 11.0041 107.486 12.4259 106.664 13.3488L100.989 19.7222L100.302 19.039L109.311 10.0581Z" fill="#CC9747"/>
<path d="M101.733 3.82812L101.85 3.99463C101.487 4.70692 100.593 7.25922 100.268 8.11813L96.9959 16.7909L96.1152 16.3808C97.8814 12.4558 100.153 7.75612 101.733 3.82812Z" fill="#CC9747"/>
<path d="M91.6361 1.48828C91.6684 4.7797 92.0349 11.6911 92.1698 15.3271C92.1698 15.3274 92.0779 15.5069 92.0682 15.5272C91.7612 15.6338 91.6743 15.6176 91.3458 15.5931C91.3116 15.548 91.2696 15.494 91.2217 15.4312C91.2188 11.8315 91.5091 5.79196 91.468 2.42537L91.6361 1.48828Z" fill="#CC9747"/>
<path d="M68.1467 26.1851C70.5891 26.229 73.0309 26.3001 75.4717 26.3984C76.3953 26.4304 77.3279 26.4749 78.2535 26.4715C78.645 26.47 79.1499 26.4237 79.3035 26.8405C79.1836 27.2594 78.9477 27.4765 78.4686 27.4424C74.698 27.1743 70.7951 26.5747 67.0303 26.3756C67.33 26.1616 67.7638 26.1977 68.1467 26.1851Z" fill="#CC9747"/>
<path d="M116.092 26.3733C112.52 26.7011 108.949 27.0314 105.379 27.3833C104.839 27.4367 104.452 27.5466 104.133 27.0448C104.148 26.7225 104.101 26.8109 104.275 26.5668C104.771 26.4322 106.675 26.4394 107.326 26.4165C109.902 26.3068 112.479 26.2303 115.058 26.187C115.411 26.1966 115.832 26.1572 116.092 26.3733Z" fill="#CC9747"/>
<path d="M113.468 18.166L113.375 18.5255C110.193 20.2837 106.711 22.0074 103.466 23.7169L103.06 22.8371C106.516 21.2938 110.038 19.7565 113.468 18.166Z" fill="#CC9747"/>
<path d="M161.664 40.1436L161.8 40.197C161.922 40.8205 161.423 42.1548 160.851 42.5271C160.417 42.8099 160.176 42.7134 159.702 42.6456C159.448 42.472 159.43 42.413 159.393 42.1392C159.619 41.5601 161.087 40.5718 161.664 40.1436Z" fill="#F1F0E5"/>
<path d="M99.4492 40.0645C99.7131 40.5483 99.027 42.2716 98.4601 42.534C97.8951 42.795 97.8482 42.7198 97.2666 42.6247C97.0457 42.3791 97.0477 42.3521 97.0731 42.0523C97.4699 41.3992 98.7973 40.5303 99.4492 40.0645Z" fill="#F1F0E5"/>
<path d="M79.4443 11.0566C80.2151 11.9998 83.9687 17.2511 84.3416 18.1404C84.2891 18.1349 84.2511 18.1233 84.2019 18.1033C83.7819 17.9339 79.7787 11.8325 79.4443 11.0566Z" fill="#DEBD8B"/>
<path d="M102.673 12.0332L102.713 12.0794C102.722 12.1334 102.732 12.1971 102.743 12.2705C101.643 13.7747 99.8711 16.511 98.9318 17.9357C98.8497 17.8765 98.8379 17.7891 98.8057 17.6894C99.2651 16.7926 100.549 15.1886 101.157 14.2417C101.447 13.7907 102.391 12.3742 102.673 12.0332Z" fill="#DEBD8B"/>
<path d="M75.4756 17.541C75.7062 17.4947 80.9666 21.1743 81.194 21.5431C80.7313 21.5186 76.0593 18.0692 75.4756 17.541Z" fill="#DEBD8B"/>
<path d="M95.4138 8.64893C95.4539 9.13977 94.3758 15.4968 94.1255 15.9835C93.7776 15.1891 95.275 9.98324 95.4138 8.64893Z" fill="#DEBD8B"/>
<path d="M110.002 23.8023L110.311 23.793C110.144 23.9402 105.026 25.1949 104.285 25.3839C104.054 25.4354 104.152 25.4412 103.907 25.3291L103.934 25.2093C104.375 25.021 104.93 24.9715 105.414 24.8553C106.94 24.4899 108.47 24.1389 110.002 23.8023Z" fill="#DEBD8B"/>
<path d="M107.005 17.9165L107.032 18.0264L102.359 21.471L102.234 21.3233C102.384 20.9862 106.385 18.3402 107.005 17.9165Z" fill="#DEBD8B"/>
<path d="M87.7906 10.1558C88.1597 11.9086 88.6652 14.105 88.8921 15.8514L88.8399 15.8972C88.202 14.3744 88.0687 12.0593 87.7061 10.3611L87.7906 10.1558Z" fill="#CC9747"/>
<path d="M74.5644 24.2046C75.1967 24.3601 79.178 25.1999 79.4025 25.4196C78.7098 25.489 75.2793 24.5768 74.4717 24.3186L74.5644 24.2046Z" fill="#CC9747"/>
<path d="M113.468 18.1657C114.077 17.8991 116.627 16.7098 117.118 16.5566C116.299 17.0527 114.281 18.1513 113.375 18.5252L113.468 18.1657Z" fill="#DEBD8B"/>
<path d="M67.03 26.3756C66.017 26.2995 64.979 26.2343 63.9736 26.1047L64.0227 26.0611C64.9963 26.0061 67.176 26.0563 68.1465 26.185C67.7636 26.1976 67.3297 26.1616 67.03 26.3756Z" fill="#DEBD8B"/>
<path d="M115.058 26.1868C115.787 26.0759 118.303 26.0102 119.1 26.0305L119.144 26.1003L119.359 26.0584C118.987 26.0146 116.763 26.3611 116.092 26.3731C115.832 26.157 115.411 26.1964 115.058 26.1868Z" fill="#DEBD8B"/>
<path d="M73.182 9.67651C72.8269 9.34635 71.8073 8.37628 71.6953 7.95605C72.0906 8.01759 72.9681 9.13399 73.2664 9.48495L73.182 9.67651Z" fill="#DEBD8B"/>
<path d="M109.312 10.0581C109.496 9.83998 111.109 8.17384 111.281 8.12988C110.957 8.54366 109.886 9.84965 109.52 10.157L109.312 10.0581Z" fill="#DEBD8B"/>
<path d="M87.7056 10.3613C87.4678 9.42421 87.3234 8.46596 87.2744 7.50049C87.4569 8.14586 87.7706 9.51818 87.7901 10.1559L87.7056 10.3613Z" fill="#DEBD8B"/>
<path d="M91.4678 2.42529C91.4063 1.73953 91.4297 0.677504 91.5421 0C91.6926 0.28135 91.6682 1.14803 91.6359 1.48819L91.4678 2.42529Z" fill="#DEBD8B"/>
<path d="M74.472 24.3186C74.0876 24.2844 72.9916 24.0444 72.6699 23.8485L72.8338 23.7969L72.7888 23.9579L72.8852 23.7991L72.8463 23.986L72.9586 23.8059C73.2045 23.8311 74.2761 24.1291 74.5648 24.2046L74.472 24.3186Z" fill="#DEBD8B"/>
<path d="M101.732 3.82796C101.843 3.54687 102.103 2.82535 102.227 2.5903L102.392 2.57822L102.401 2.52063L102.284 2.49135L102.4 2.42139C102.366 2.82905 102.037 3.6085 101.85 3.99447L101.732 3.82796Z" fill="#DEBD8B"/>
<path d="M73.1235 30.4531C72.8073 30.5392 71.8358 30.854 71.588 30.7773L71.5912 30.8311L71.5029 30.8287C71.8123 30.6237 72.5406 30.4148 72.923 30.2896L73.1235 30.4531Z" fill="#DEBD8B"/>
<path d="M114.959 32.2627C115.264 32.3856 115.649 32.518 115.874 32.7515C115.509 32.7532 115.131 32.5409 114.79 32.3869L114.959 32.2627Z" fill="#DEBD8B"/>
</svg>
